<mxfile host="app.diagrams.net" modified="2023-07-03T15:01:05.367Z" agent="Mozilla/5.0 (Windows NT 10.0; Win64; x64) AppleWebKit/537.36 (KHTML, like Gecko) Chrome/114.0.0.0 Safari/537.36 Edg/114.0.1823.67" etag="Brddhy08BKGFczFk8wAh" version="21.5.2" type="device">
  <diagram name="Page-1" id="iglrZz8r0JFHFEN3IPCb">
    <mxGraphModel dx="794" dy="509" grid="1" gridSize="10" guides="1" tooltips="1" connect="1" arrows="1" fold="1" page="1" pageScale="1" pageWidth="850" pageHeight="1100" math="0" shadow="0">
      <root>
        <mxCell id="0" />
        <mxCell id="1" parent="0" />
        <mxCell id="A4MeT4V4dEhSNgnd6LLy-5" style="edgeStyle=orthogonalEdgeStyle;rounded=0;orthogonalLoop=1;jettySize=auto;html=1;exitX=1;exitY=0.5;exitDx=0;exitDy=0;" edge="1" parent="1" source="A4MeT4V4dEhSNgnd6LLy-3" target="A4MeT4V4dEhSNgnd6LLy-4">
          <mxGeometry relative="1" as="geometry" />
        </mxCell>
        <mxCell id="A4MeT4V4dEhSNgnd6LLy-3" value="Mulai" style="ellipse;whiteSpace=wrap;html=1;" vertex="1" parent="1">
          <mxGeometry x="30" y="70" width="120" height="80" as="geometry" />
        </mxCell>
        <mxCell id="A4MeT4V4dEhSNgnd6LLy-7" style="edgeStyle=orthogonalEdgeStyle;rounded=0;orthogonalLoop=1;jettySize=auto;html=1;exitX=1;exitY=0.5;exitDx=0;exitDy=0;entryX=0;entryY=0.5;entryDx=0;entryDy=0;" edge="1" parent="1" source="A4MeT4V4dEhSNgnd6LLy-4" target="A4MeT4V4dEhSNgnd6LLy-6">
          <mxGeometry relative="1" as="geometry" />
        </mxCell>
        <mxCell id="A4MeT4V4dEhSNgnd6LLy-4" value="Input Kalimat" style="shape=parallelogram;perimeter=parallelogramPerimeter;whiteSpace=wrap;html=1;fixedSize=1;" vertex="1" parent="1">
          <mxGeometry x="190" y="80" width="120" height="60" as="geometry" />
        </mxCell>
        <mxCell id="A4MeT4V4dEhSNgnd6LLy-9" style="edgeStyle=orthogonalEdgeStyle;rounded=0;orthogonalLoop=1;jettySize=auto;html=1;exitX=1;exitY=0.5;exitDx=0;exitDy=0;entryX=0;entryY=0.5;entryDx=0;entryDy=0;" edge="1" parent="1" source="A4MeT4V4dEhSNgnd6LLy-6" target="A4MeT4V4dEhSNgnd6LLy-8">
          <mxGeometry relative="1" as="geometry" />
        </mxCell>
        <mxCell id="A4MeT4V4dEhSNgnd6LLy-6" value="Ubah menjadi huruf kecil" style="rounded=0;whiteSpace=wrap;html=1;" vertex="1" parent="1">
          <mxGeometry x="350" y="80" width="120" height="60" as="geometry" />
        </mxCell>
        <mxCell id="A4MeT4V4dEhSNgnd6LLy-11" style="edgeStyle=orthogonalEdgeStyle;rounded=0;orthogonalLoop=1;jettySize=auto;html=1;exitX=0.5;exitY=1;exitDx=0;exitDy=0;entryX=0.5;entryY=0;entryDx=0;entryDy=0;" edge="1" parent="1" source="A4MeT4V4dEhSNgnd6LLy-8" target="A4MeT4V4dEhSNgnd6LLy-10">
          <mxGeometry relative="1" as="geometry" />
        </mxCell>
        <mxCell id="A4MeT4V4dEhSNgnd6LLy-8" value="balik kata yg sudah diubah menjadi huruf kecil" style="rounded=0;whiteSpace=wrap;html=1;" vertex="1" parent="1">
          <mxGeometry x="510" y="80" width="120" height="60" as="geometry" />
        </mxCell>
        <mxCell id="A4MeT4V4dEhSNgnd6LLy-14" style="edgeStyle=orthogonalEdgeStyle;rounded=0;orthogonalLoop=1;jettySize=auto;html=1;exitX=0.5;exitY=1;exitDx=0;exitDy=0;entryX=0.5;entryY=0;entryDx=0;entryDy=0;" edge="1" parent="1" source="A4MeT4V4dEhSNgnd6LLy-10" target="A4MeT4V4dEhSNgnd6LLy-12">
          <mxGeometry relative="1" as="geometry" />
        </mxCell>
        <mxCell id="A4MeT4V4dEhSNgnd6LLy-15" value="jika kata yg dibalik sama dengan kata awal" style="edgeLabel;html=1;align=center;verticalAlign=middle;resizable=0;points=[];" vertex="1" connectable="0" parent="A4MeT4V4dEhSNgnd6LLy-14">
          <mxGeometry x="-0.06" y="-1" relative="1" as="geometry">
            <mxPoint as="offset" />
          </mxGeometry>
        </mxCell>
        <mxCell id="A4MeT4V4dEhSNgnd6LLy-16" style="edgeStyle=orthogonalEdgeStyle;rounded=0;orthogonalLoop=1;jettySize=auto;html=1;exitX=0;exitY=0.5;exitDx=0;exitDy=0;" edge="1" parent="1" source="A4MeT4V4dEhSNgnd6LLy-10" target="A4MeT4V4dEhSNgnd6LLy-13">
          <mxGeometry relative="1" as="geometry" />
        </mxCell>
        <mxCell id="A4MeT4V4dEhSNgnd6LLy-17" value="jika kata yg dibalik tidak sama" style="edgeLabel;html=1;align=center;verticalAlign=middle;resizable=0;points=[];" vertex="1" connectable="0" parent="A4MeT4V4dEhSNgnd6LLy-16">
          <mxGeometry x="-0.0259" y="3" relative="1" as="geometry">
            <mxPoint as="offset" />
          </mxGeometry>
        </mxCell>
        <mxCell id="A4MeT4V4dEhSNgnd6LLy-10" value="cek kata&amp;nbsp;" style="rhombus;whiteSpace=wrap;html=1;" vertex="1" parent="1">
          <mxGeometry x="530" y="180" width="80" height="80" as="geometry" />
        </mxCell>
        <mxCell id="A4MeT4V4dEhSNgnd6LLy-20" style="edgeStyle=orthogonalEdgeStyle;rounded=0;orthogonalLoop=1;jettySize=auto;html=1;exitX=0;exitY=0.5;exitDx=0;exitDy=0;entryX=1;entryY=0.5;entryDx=0;entryDy=0;" edge="1" parent="1" source="A4MeT4V4dEhSNgnd6LLy-12" target="A4MeT4V4dEhSNgnd6LLy-18">
          <mxGeometry relative="1" as="geometry" />
        </mxCell>
        <mxCell id="A4MeT4V4dEhSNgnd6LLy-12" value="cetak output &quot;kata ini palindrome&quot;" style="shape=parallelogram;perimeter=parallelogramPerimeter;whiteSpace=wrap;html=1;fixedSize=1;" vertex="1" parent="1">
          <mxGeometry x="510" y="360" width="120" height="60" as="geometry" />
        </mxCell>
        <mxCell id="A4MeT4V4dEhSNgnd6LLy-19" style="edgeStyle=orthogonalEdgeStyle;rounded=0;orthogonalLoop=1;jettySize=auto;html=1;exitX=0.5;exitY=1;exitDx=0;exitDy=0;entryX=0.5;entryY=0;entryDx=0;entryDy=0;" edge="1" parent="1" source="A4MeT4V4dEhSNgnd6LLy-13" target="A4MeT4V4dEhSNgnd6LLy-18">
          <mxGeometry relative="1" as="geometry" />
        </mxCell>
        <mxCell id="A4MeT4V4dEhSNgnd6LLy-13" value="cetak output &quot;bukan palindrome&quot;" style="shape=parallelogram;perimeter=parallelogramPerimeter;whiteSpace=wrap;html=1;fixedSize=1;" vertex="1" parent="1">
          <mxGeometry x="240" y="190" width="120" height="60" as="geometry" />
        </mxCell>
        <mxCell id="A4MeT4V4dEhSNgnd6LLy-18" value="selesai" style="ellipse;whiteSpace=wrap;html=1;" vertex="1" parent="1">
          <mxGeometry x="240" y="350" width="120" height="80" as="geometry" />
        </mxCell>
      </root>
    </mxGraphModel>
  </diagram>
</mxfile>
